<svg class="injected-svg" id="svg-2e9fbf1c-4dff-43b6-a84f-b97bb36a7994" height="100%" width="100%" viewBox="0 0 540 508" xmlns="http://www.w3.org/2000/svg"><g xmlns="http://www.w3.org/2000/svg" fill="#7054bd" id="icon-svg">
	<path transform="translate(189, 113) scale(0.8000000000000003,0.8000000000000003)" d="M 117.500 12.204 C 110.019 14.812, 105.598 21.760, 106.192 29.976 C 106.663 36.490, 109.414 41.130, 114.012 43.166 L 117 44.488 117 56.244 L 117 68 105.500 68 L 94 68 94 50.071 C 94 35.106, 93.740 31.883, 92.429 30.571 C 91.159 29.302, 88.325 29, 77.673 29 L 64.488 29 63.166 26.012 C 61.193 21.556, 56.523 18.708, 50.347 18.196 C 43.861 17.658, 39.972 19.129, 36.041 23.607 C 31.851 28.378, 30.358 33.915, 31.887 39.017 C 36.240 53.546, 54.544 56.648, 62.500 44.205 L 64.500 41.077 73.750 41.039 L 83 41 83 54.500 L 83 68 77.455 68 C 72.900 68, 71.470 68.439, 69.455 70.455 C 67.159 72.750, 67 73.591, 67 83.455 L 67 94 49.750 93.948 C 33.236 93.897, 32.607 93.823, 35 92.208 C 39.923 88.885, 42.856 85.248, 43.980 81.074 C 48.502 64.281, 27.680 52.120, 15.410 64.390 C 7.505 72.295, 9.040 85.551, 18.509 91.138 C 21.733 93.040, 22 93.568, 22 98.042 C 22 105.772, 22.707 106, 46.723 106 L 67 106 67 116 L 67 126 55.633 126 L 44.266 126 41.567 121.921 C 38.625 117.476, 32.523 114.059, 27.462 114.022 C 25.791 114.010, 22.420 115.013, 19.970 116.250 C 9.218 121.682, 6.971 135.171, 15.410 143.610 C 23.130 151.330, 36.271 149.769, 42.031 140.450 L 44.163 137 63.582 137 L 83 137 83 151 L 83 165 73.744 165 L 64.488 165 63.166 162.012 C 61.290 157.774, 56.556 154.760, 50.926 154.219 C 44.372 153.589, 41.618 154.447, 37.105 158.524 C 29.799 165.125, 29.390 174.818, 36.095 182.456 C 43.323 190.688, 56.516 189.563, 62.500 180.205 L 64.500 177.077 77.139 177.039 C 94.891 176.984, 93.928 178.197, 94.247 155.500 L 94.500 137.500 105.750 137.217 L 117 136.934 117 148.942 L 117 160.949 114.029 162.485 C 106.335 166.464, 103.338 178.753, 108.274 186.078 C 111.936 191.513, 116.464 194, 122.698 194 C 129.186 194, 132.973 192.213, 136.622 187.429 C 142.405 179.847, 140.281 167.809, 132.288 162.869 L 129 160.837 129 148.918 C 129 138, 129.155 137, 130.845 137 C 134.310 137, 136 133.777, 136 127.171 L 136 121 150 121 L 164 121 164 135.500 C 164 144.472, 163.620 150, 163.003 150 C 162.454 150, 160.257 151.580, 158.119 153.512 C 147.650 162.970, 152.687 179.951, 166.750 182.608 C 176.858 184.519, 187.047 176.043, 186.978 165.782 C 186.944 160.746, 183.588 154.401, 179.587 151.808 L 176.025 149.500 176.012 132.184 C 176 115.380, 175.434 111.657, 172.600 109.765 C 171.995 109.361, 163.512 109.024, 153.750 109.015 L 136 109 136 102.500 L 136 96 156.365 96 C 175.454 96, 176.895 95.870, 179.365 93.927 C 181.766 92.039, 182.003 91.218, 182.038 84.677 L 182.076 77.500 186.105 74.712 C 191.197 71.188, 193.352 66.261, 192.786 59.438 C 191.019 38.122, 159 39.539, 159 60.933 C 159 66.928, 161.306 71.536, 165.895 74.712 C 169.177 76.983, 169.931 78.102, 169.962 80.750 L 170 84 153.048 84 L 136.095 84 135.798 77.766 C 135.521 71.970, 135.274 71.390, 132.289 69.516 L 129.077 67.500 129.077 56 L 129.077 44.500 132.205 42.500 C 143.732 35.130, 142.250 18.652, 129.541 12.880 C 125.030 10.830, 121.938 10.657, 117.500 12.204 M 119 25 C 116.593 27.407, 116.499 28.840, 118.557 31.777 C 121.644 36.185, 128 33.619, 128 27.964 C 128 23.167, 122.608 21.392, 119 25 M 45.223 30.557 C 40.854 33.616, 43.070 40, 48.500 40 C 52.121 40, 54 37.992, 54 34.122 C 54 32.162, 50.605 29, 48.500 29 C 47.920 29, 46.445 29.701, 45.223 30.557 M 171.490 58.374 C 170.225 60.306, 170.104 61.325, 170.952 62.910 C 173.399 67.482, 178.531 67.613, 180.912 63.164 C 183.765 57.833, 174.823 53.288, 171.490 58.374 M 24.834 71.395 C 21.521 73.047, 21.521 78.953, 24.834 80.605 C 27.947 82.156, 30.927 81.254, 32.245 78.361 C 34.509 73.392, 29.768 68.935, 24.834 71.395 M 79 103 L 79 126 101.500 126 L 124 126 124 103 L 124 80 101.500 80 L 79 80 79 103 M 23.655 127.829 C 21.424 130.294, 21.570 133.301, 24.030 135.527 C 28.583 139.648, 35.648 132.583, 31.527 128.030 C 29.244 125.507, 25.835 125.420, 23.655 127.829 M 166 162 C 163.598 164.402, 163.431 167.288, 165.571 169.429 C 167.431 171.288, 172.101 171.499, 173.800 169.800 C 175.789 167.811, 175.226 163.272, 172.777 161.557 C 169.840 159.499, 168.407 159.593, 166 162 M 45 167 C 41.168 170.832, 43.178 176, 48.500 176 C 53.930 176, 56.146 169.616, 51.777 166.557 C 48.840 164.499, 47.407 164.593, 45 167 M 118.440 174.451 C 115.124 179.512, 120.420 184.921, 125.459 181.619 C 128.223 179.808, 128.935 175.335, 126.800 173.200 C 124.700 171.100, 120.194 171.774, 118.440 174.451" stroke="none" fill-rule="evenodd"></path>
</g><path xmlns="http://www.w3.org/2000/svg" id="SvgjsPath46611877" d="M18.91-46.43L31.10-46.43C42.34-46.43 48.69-37.38 48.69-26.86C48.69-16.72 41.83-7.96 31.24-7.96L18.91-7.96ZM6.79-46.43L11.10-46.43L11.10 0L31.24 0C38.47 0 43.65-1.90 48.62-7.23C53.65-12.56 56.72-20.07 56.72-27.45C56.72-42.19 45.84-54.46 31.02-54.46L3.28-54.46ZM77.31 0L77.31-37.81L69.86-37.81L69.86 0ZM140.74-37.81L131.55-37.81L115.41-16.43L99.28-37.81L90.08-37.81L93.80-31.75L93.80 0L102.05 0L102.05-22.12L115.41-4.31L128.77-22.12L128.77 0L137.02 0L137.02-31.75ZM169.80-48.69L146.22 0L154.83 0L156.22-2.55C157.46-4.82 162.79-7.96 172.72-7.96L189.29-7.96L192.87 0L201.77 0L175.56-55.41L166.80-55.41ZM175.64-15.99C168.19-15.99 163.74-14.60 161.77-12.92L173.81-38.98L185.71-15.99ZM207.98-37.81L211.70-32.19L211.70 0L219.22 0L219.22-24.60L240.24 0L247.76 0L247.76-37.81L240.24-37.81L240.24-11.53L217.39-37.81ZM283.97-30.29C291.27-30.29 295.43-26.43 295.43-19.05C295.43-11.75 291.27-7.59 283.97-7.59L276.45-7.59L276.45-30.29ZM263.89-30.29L268.57-30.29L268.57 0L283.97 0C295.50 0 303.10-7.45 303.10-19.20C303.10-31.24 295.36-37.81 283.97-37.81L260.54-37.81ZM324.41-13.58C327.70-15.33 329.30-15.77 336.24-15.77L341.79-15.77L341.79-23.29L336.24-23.29C331.86-23.29 327.70-22.99 324.41-21.10L324.41-30.29L346.75-30.29L346.75-37.81L316.97-37.81L316.97 0L348.14 0L348.14-7.59L324.41-7.59ZM389.97-15.40C395.44-17.08 398.65-20.66 398.65-26.43C398.65-33.00 393.69-37.81 386.75-37.81L362.37-37.81L362.37 0L370.04 0L370.04-13.29C373.10-14.89 374.71-15.48 380.62-15.48L381.13-15.48L386.97-5.99C390.48-0.29 394.05 0 398.00 0L401.28 0L401.28-8.10L398.65-8.10C396.75-8.10 394.13-8.39 392.30-11.46ZM380.62-22.99C376.68-22.99 372.96-22.41 370.04-20.80L370.04-30.29L385.44-30.29C388.07-30.29 390.99-30.00 390.99-26.64C390.99-24.24 389.02-22.99 386.75-22.99Z" fill="#343a40" fontsize="73" transform="matrix(1,0,0,1,69.72,327.705)"></path></svg>